<svg xmlns="http://www.w3.org/2000/svg" xmlns:svg="http://www.w3.org/2000/svg" xmlns:xlink="http://www.w3.org/1999/xlink" id="svg2" width="22" height="22" display="inline" version="1.0"><defs id="defs4"><linearGradient id="linearGradient3327"><stop id="stop3330" offset="0" stop-color="#000" stop-opacity="1"/><stop id="stop3333" offset="1" stop-color="#000" stop-opacity="0"/></linearGradient><linearGradient id="linearGradient3335" x1="11.375" x2="11.375" y1="22" y2="-9.817" gradientUnits="userSpaceOnUse" xlink:href="#linearGradient3327"/><linearGradient id="ButtonColor" x1="10.32" x2="10.32" y1="21" y2=".999" gradientUnits="userSpaceOnUse"><stop id="stop20960" offset="0" stop-color="#8f1cac" stop-opacity="1"/><stop id="stop20962" offset="1" stop-color="#d285e6" stop-opacity="1"/></linearGradient><linearGradient id="linearGradient3181" x1="-3.061" x2="-3.061" y1="27.258" y2="7.254" gradientTransform="translate(11.119372,-6.2581979)" gradientUnits="userSpaceOnUse" xlink:href="#ButtonColor"/><linearGradient id="ButtonShadow" x1="9.355" x2="9.355" y1="21.743" y2=".494" gradientTransform="scale(0.9883037,1.0118347)" gradientUnits="userSpaceOnUse"><stop id="stop3277" offset="0" stop-color="#000" stop-opacity=".706"/><stop id="stop3279" offset="1" stop-color="#000" stop-opacity=".157"/></linearGradient><linearGradient id="linearGradient3215"><stop id="stop3217" offset="0" stop-color="#000" stop-opacity="1"/><stop id="stop3219" offset="1" stop-color="#000" stop-opacity="0"/></linearGradient><linearGradient id="linearGradient3221" x1="11" x2="11" y1="14.806" y2="-6" gradientUnits="userSpaceOnUse" xlink:href="#linearGradient3215"/><linearGradient id="linearGradient3257"><stop id="stop3259" offset="0" stop-color="#a50000" stop-opacity="1"/><stop id="stop3261" offset="1" stop-color="#e73800" stop-opacity="1"/></linearGradient><linearGradient id="linearGradient3274"><stop id="stop3276" offset="0" stop-color="#00baef" stop-opacity="1"/><stop id="stop3278" offset="1" stop-color="#80e3ff" stop-opacity="0"/></linearGradient><linearGradient id="linearGradient3465"><stop id="stop3467" offset="0" stop-color="#919191" stop-opacity="1"/><stop id="stop3469" offset="1" stop-color="#e6e6e6" stop-opacity="1"/></linearGradient><linearGradient id="linearGradient3929"><stop id="stop3931" offset="0" stop-color="#000" stop-opacity="1"/><stop id="stop3933" offset="1" stop-color="#000" stop-opacity=".588"/></linearGradient><linearGradient id="linearGradient3935" x1="60.542" x2="60.542" y1="127.967" y2="7.83" gradientUnits="userSpaceOnUse" xlink:href="#linearGradient3929"/><linearGradient id="linearGradient3187"><stop id="stop3189" offset="0" stop-color="#b4b4b4" stop-opacity="1"/><stop id="stop3191" offset="1" stop-color="#e6e6e6" stop-opacity="1"/></linearGradient><linearGradient id="linearGradient3222" x1="62.5" x2="62.5" y1="123.5" y2="3.499" gradientTransform="translate(-0.5,-0.4999992)" gradientUnits="userSpaceOnUse" xlink:href="#linearGradient3187"/><linearGradient id="linearGradient3224"><stop id="stop3226" offset="0" stop-color="#000" stop-opacity="1"/><stop id="stop3228" offset="1" stop-color="#3c3c3c" stop-opacity="1"/></linearGradient><linearGradient id="linearGradient3471" x1="35.5" x2="35.5" y1="14" y2="114.045" gradientTransform="translate(45.228185,6)" gradientUnits="userSpaceOnUse" xlink:href="#linearGradient3465"/><linearGradient id="linearGradient5166" x1="98.25" x2="98.25" y1="114.5" y2="12.455" gradientTransform="translate(39.228185,0)" gradientUnits="userSpaceOnUse" xlink:href="#linearGradient3224"/><linearGradient id="linearGradient5194" x1="69" x2="69" y1="122" y2="5.978" gradientTransform="translate(39.228185,0)" gradientUnits="userSpaceOnUse" xlink:href="#linearGradient3187"/><radialGradient id="radialGradient3280" cx="63.936" cy="57.936" r="53.347" fx="63.936" fy="57.936" gradientTransform="matrix(0.9999741,-7.1995003e-3,9.3673636e-3,1.3010793,38.687131,-16.983137)" gradientUnits="userSpaceOnUse" xlink:href="#linearGradient3274"/><radialGradient id="radialGradient2547" cx="63.936" cy="57.936" r="53.347" fx="63.936" fy="57.936" gradientTransform="matrix(0.9999741,-7.1995003e-3,9.3673636e-3,1.3010793,38.687131,-58.983137)" gradientUnits="userSpaceOnUse" xlink:href="#linearGradient3274"/><linearGradient id="linearGradient3341" x1="98.25" x2="98.25" y1="114.5" y2="12.455" gradientTransform="matrix(0.1607661,0,0,0.1730818,0.7604567,-7.6769232e-2)" gradientUnits="userSpaceOnUse" xlink:href="#linearGradient3224"/><linearGradient id="linearGradient3412" x1="10.621" x2="10.621" y1="3" y2="19.053" gradientTransform="translate(20,0)" gradientUnits="userSpaceOnUse" xlink:href="#linearGradient3465"/><radialGradient id="radialGradient3433" cx="63.936" cy="57.936" r="53.347" fx="63.936" fy="57.936" gradientTransform="matrix(0.1874285,-1.2241454e-3,1.7557568e-3,0.2212251,-0.3700419,-2.4072148)" gradientUnits="userSpaceOnUse" xlink:href="#linearGradient3274"/><linearGradient id="linearGradient2446" x1="47.667" x2="47.667" y1="121.972" y2="5.949" gradientTransform="matrix(0.1678362,0,0,0.1678362,0.2447363,0.2447377)" gradientUnits="userSpaceOnUse" xlink:href="#linearGradient3187"/><linearGradient id="linearGradient3249" x1="10.111" x2="10.111" y1="3" y2="19.025" gradientTransform="translate(-1,-1)" gradientUnits="userSpaceOnUse" xlink:href="#linearGradient3465"/><linearGradient id="linearGradient20969" x1="-3.061" x2="-3.061" y1="27.258" y2="7.254" gradientTransform="translate(11.119372,-6.2581979)" gradientUnits="userSpaceOnUse" xlink:href="#linearGradient3187"/><radialGradient id="radialGradient3205" cx="47.098" cy="78.287" r="38.957" fx="47.098" fy="78.287" gradientTransform="matrix(1.3830053,-1.0350102e-8,0,1.3123934,-18.038924,-24.218731)" gradientUnits="userSpaceOnUse" xlink:href="#linearGradient3224-2"/><linearGradient id="linearGradient3224-2"><stop id="stop3226-5" offset="0" stop-color="#52475d" stop-opacity="1"/><stop id="stop3228-4" offset="1" stop-color="#000" stop-opacity="1"/></linearGradient><radialGradient id="radialGradient2879" cx="47.098" cy="78.287" r="38.957" fx="47.098" fy="78.287" gradientTransform="matrix(1.3830053,-1.0350102e-8,0,1.3123934,-52.038924,-65.218731)" gradientUnits="userSpaceOnUse" xlink:href="#linearGradient3224-2"/><radialGradient id="radialGradient3680" cx="47.098" cy="78.287" r="38.957" fx="47.098" fy="78.287" gradientTransform="matrix(1.3830053,-1.0350102e-8,0,1.3123934,-52.038924,-65.218731)" gradientUnits="userSpaceOnUse" xlink:href="#linearGradient3224-2"/><radialGradient id="radialGradient3882" cx="47.098" cy="78.287" r="38.957" fx="47.098" fy="78.287" gradientTransform="matrix(0.31947611,0,0,0.30316466,-4.0475704,-5.6387621)" gradientUnits="userSpaceOnUse" xlink:href="#linearGradient3224-2"/><linearGradient id="linearGradient3869" x1="10" x2="10" y1="1" y2="16" gradientUnits="userSpaceOnUse" xlink:href="#linearGradient3823"/><linearGradient id="linearGradient3823"><stop id="stop3825" offset="0" stop-color="#fff" stop-opacity="1"/><stop id="stop3829" offset="1" stop-color="#fff" stop-opacity="0"/></linearGradient><linearGradient id="linearGradient3845" x1="11" x2="21" y1="19.5" y2="19.5" gradientUnits="userSpaceOnUse" spreadMethod="reflect" xlink:href="#linearGradient3831"/><linearGradient id="linearGradient3831"><stop id="stop3833" offset="0" stop-color="#fff" stop-opacity="1"/><stop id="stop3821" offset=".75" stop-color="#fff" stop-opacity=".498"/><stop id="stop3835" offset="1" stop-color="#fff" stop-opacity="0"/></linearGradient><linearGradient id="linearGradient4629" x1="10" x2="10" y1="1" y2="16" gradientUnits="userSpaceOnUse" xlink:href="#linearGradient3823"/></defs><metadata id="metadata7"/><g id="layer4"><g id="g3337" display="inline"><rect id="rect3371" width="21" height="21.5" x=".5" y=".5" fill="url(#linearGradient3335)" fill-opacity="1" stroke="none" display="inline" opacity=".3" rx="2.5" ry="2.5"/><rect id="rect2553" width="20" height="20" x="1" y="2" fill="#000" fill-opacity="1" stroke="none" display="inline" opacity=".5" rx="2.381" ry="2.326"/></g></g><g id="layer2"><rect id="rect3461" width="17.998" height="18.137" x="2" y="1.863" fill="url(#radialGradient3882)" fill-opacity="1" stroke="none" rx="1.352" ry="1.426"/><path id="rect3256" fill="#d9c6ed" fill-opacity="1" stroke="none" d="m 3.3534646,1.861559 c -0.7490064,0 -1.3499142,0.6392962 -1.3499142,1.4293209 l 0,11.3335041 C 6.3519324,11.42296 12.586107,9.128017 20,9.5928857 L 20,3.2908799 C 20,2.500855 19.391873,1.861559 18.642867,1.861559 l -15.2894024,0 z" opacity=".14"/><rect id="rect2455" width="17" height="17" x="2.5" y="2.5" fill="none" stroke="#000" stroke-dasharray="none" stroke-dashoffset="0" stroke-linecap="butt" stroke-linejoin="round" stroke-miterlimit="4" stroke-opacity="1" stroke-width="2.145" display="inline" opacity=".4" rx="1" ry="1" transform="matrix(0.9324465,0,0,0.9324465,0.7430888,0.7430888)"/></g><g id="layer1"><path id="rect3173" fill="url(#linearGradient20969)" fill-opacity="1" fill-rule="evenodd" stroke="none" d="M 3,1 C 1.892,1 1,1.892 1,3 l 0,16 c 0,1.108 0.892,2 2,2 l 16,0 c 1.108,0 2,-0.892 2,-2 L 21,3 C 21,1.892 20.108,1 19,1 L 3,1 z m 0.5,1.5 15,0 c 0.554,0 1,0.446 1,1 l 0,15 c 0,0.554 -0.446,1 -1,1 l -15,0 c -0.554,0 -1,-0.446 -1,-1 l 0,-15 c 0,-0.554 0.446,-1 1,-1 z" display="inline"/><rect id="rect2463" width="17" height="17" x="2.5" y="2.5" fill="none" stroke="url(#linearGradient3249)" stroke-dasharray="none" stroke-dashoffset="0" stroke-linecap="butt" stroke-linejoin="round" stroke-miterlimit="4" stroke-opacity="1" stroke-width="1" rx="1" ry="1"/><path id="rect3050" fill="url(#linearGradient4629)" fill-opacity="1" fill-rule="evenodd" stroke="none" d="M 3,1 C 1.892,1 1,1.892 1,3 l 0,16 c 0,1.108 0.892,2 2,2 l 16,0 c 1.108,0 2,-0.892 2,-2 L 21,3 C 21,1.892 20.108,1 19,1 L 3,1 z m 0,1.03125 16,0 c 0.5497,0 0.96875,0.4190495 0.96875,0.96875 l 0,16 c 0,0.5497 -0.41905,0.96875 -0.96875,0.96875 l -16,0 C 2.4502995,19.96875 2.03125,19.5497 2.03125,19 l 0,-16 C 2.03125,2.4502995 2.4502995,2.03125 3,2.03125 z" display="inline" opacity=".6"/><path id="path3235" fill="url(#linearGradient3845)" fill-opacity="1" fill-rule="evenodd" stroke="none" d="M 3,21 C 1.892,21 1,20.108 1,19 l 0,-1 c 0,1.108 0.892,2 2,2 l 16,0 c 1.108,0 2,-0.892 2,-2 l 0,1 c 0,1.108 -0.892,2 -2,2 L 3,21 z" display="inline" opacity=".4"/></g><g id="layer3"><path id="path3069" fill="#f95" fill-opacity="1" stroke="none" d="m 6.0114384,6.9885036 0,1.1503067 2.786745,1.4181727 -2.786745,1.418174 0,1.040744 L 10,10.119691 10,8.8740908 6.0114384,6.9885036 z" display="inline" font-family="MgOpen Canonica" font-size="48" font-stretch="normal" font-style="normal" font-variant="normal" font-weight="bold" opacity=".85" text-anchor="start" writing-mode="lr-tb" style="text-align:start;line-height:125%;-inkscape-font-specification:MgOpen Canonica Bold"/><path id="path5204" fill="#cdde87" fill-opacity="1" stroke="none" d="m 10.021273,12.04215 0,0.973751 3.978727,0 0,-0.973751 -3.978727,0 z" display="inline" font-family="MgOpen Canonica" font-size="48" font-stretch="normal" font-style="normal" font-variant="normal" font-weight="bold" opacity=".85" text-anchor="start" writing-mode="lr-tb" style="text-align:start;line-height:125%;-inkscape-font-specification:MgOpen Canonica Bold"/></g></svg>